- 
http://www.Speed.Cd 
       
http://www.Speed.Cd       the fast  and The Hottest Private Tracker on the net

(((--Registration will be open on june every weekend--)))

Please Seed back to make the speed Faster!!!

------------------nfo--------------------------
-                                                                                                     
       
     
     
       
       
     
     
                                         
                                         
                EXVID                    
                                         
         
                                         
         Filled the Archives             
                                         
         
                                         
                With:                    
                                         
         
                                         
                                    
     E240                           
                                    
     SP               (C) 2009      
                                         
     
     
     
                                                                                  
                                                                                   
                 Rango.2011.THEATRiCAL.DVDRip.XviD-EXViD                            
                                                                                   
                                                                                  
     
                                                                                               
EXViD aims to iNTERNAL those releases which have been lost in the archives.
EXViD aims to PRE non-internal releases which have poor sources and are likely skipped by others.
 
http://www.imdb.com/title/tt1192628/
Subtitles: EN, FR, NL, FL (Flemish)
Date: 2011.06

Director: Gore Verbinski

Genres: Animation | Adventure | Comedy | Family | Western

Plot:
Rango is an ordinary chameleon who accidentally winds up in the town of Dirt, a lawless outpost
in the Wild West in desperate need of a new sheriff.

Cast:
Johnny Depp 	 ... 	Rango / Lars (voice) 
Isla Fisher 	 ... 	Beans (voice) 
Abigail Breslin 	 ... 	Priscilla (voice) 
Ned Beatty 	 ... 	Mayor (voice) 
Alfred Molina 	 ... 	Roadkill (voice) 
Bill Nighy 	 ... 	Rattlesnake Jake (voice) 
Stephen Root 	 ... 	 Doc / Merrimack / Mr. Snuggles (voice) 
Harry Dean Stanton 	 ... 	 Balthazar (voice) 
Timothy Olyphant 	 ... 	Spirit of the West (voice) 
Ray Winstone 	 ... 	Bad Bill (voice) 
Ian Abercrombie 	 ... 	 Ambrose (voice) 
Gil Birmingham 	 ... 	 Wounded Bird (voice) 
James Ward Byrkit 	 ... 	 Waffles / GordyPapa / Joad / Cousin Murt / Curlie Knife Attacker / Rodent Kid (voice) 
Claudia Black 	 ... 	 Angelique (voice) 
Blake Clark 	 ... 	 Buford (voice)

Stats:
Format                           : AVI
Format/Info                      : Audio Video Interleave
File size                        : 1.37 GiB
Duration                         : 1h 42mn
Overall bit rate                 : 1 902 Kbps
Writing application              : VirtualDubMod 1.5.10.2 (build 2540/release)
Writing library                  : VirtualDubMod build 2540/release

Video
ID                               : 0
Format                           : MPEG-4 Visual
Format profile                   : Advanced Simple@L5
Format settings, BVOP            : Yes
Format settings, QPel            : No
Format settings, GMC             : No warppoints
Format settings, Matrix          : Default (H.263)
Muxing mode                      : Packed bitstream
Codec ID                         : XVID
Codec ID/Hint                    : XviD
Duration                         : 1h 42mn
Bit rate                         : 1 444 Kbps
Width                            : 640 pixels
Height                           : 272 pixels
Display aspect ratio             : 2.35:1
Frame rate                       : 25.000 fps
Color space                      : YUV
Chroma subsampling               : 4:2:0
Bit depth                        : 8 bits
Scan type                        : Progressive
Bits/(Pixel*Frame)               : 0.332
Stream size                      : 1.04 GiB (76%)
Writing library                  : XviD 62

Audio
ID                               : 1
Format                           : AC-3
Format/Info                      : Audio Coding 3
Mode extension                   : CM (complete main)
Codec ID                         : 2000
Duration                         : 1h 42mn
Bit rate mode                    : Constant
Bit rate                         : 448 Kbps
Channel(s)                       : 6 channels
Channel positions                : Front: L C R, Side: L R, LFE
Sampling rate                    : 48.0 KHz
Bit depth                        : 16 bits
Stream size                      : 330 MiB (24%)
Alignment                        : Split accross interleaves
Interleave, duration             : 40 ms (1.00 video frame)
Interleave, preload duration     : 500 ms




Release notes:
enjoy!

Looking for:
75TB+ Archives
DUTCH/FLEMiSH Archives
                                                                                                    
Greets: CRBS EPiSODE FiCO FLS iLS KLASSiGER LiPSYNC MADE NODLABS RUNNER SPRiNTER      
   

                                                                    ASCII DONE BY XX^NFO 2oo9